<svg width="12" height="9" viewBox="0 0 12 9" fill="none" xmlns="http://www.w3.org/2000/svg">
<path d="M3.13333 3.85714C3.4 2.57143 4.6 1.60714 6 1.60714C7 1.60714 7.8 2.05714 8.33333 2.76429L9.46667 1.47857C8.66667 0.578572 7.4 0 6 0C3.66667 0 1.73333 1.67143 1.4 3.85714H0L2.33333 6.42857L4.66667 3.85714H3.13333ZM9.66667 2.57143L7.33333 5.14286H8.86667C8.53333 6.42857 7.4 7.39286 6 7.39286C5 7.39286 4.2 6.94286 3.66667 6.23571L2.53333 7.45714C3.33333 8.42143 4.6 9 6 9C8.33333 9 10.2667 7.32857 10.6 5.14286H12L9.66667 2.57143Z" fill="#FE9902"/>
</svg>
