<svg width="57" height="17" viewBox="0 0 57 17" fill="none" xmlns="http://www.w3.org/2000/svg">
<path d="M4.21591 14.1541C3.4768 14.1541 2.84044 13.9867 2.30682 13.652C1.77652 13.3139 1.36884 12.8482 1.08381 12.255C0.798769 11.6617 0.65625 10.9822 0.65625 10.2166C0.65625 9.44105 0.802083 8.75663 1.09375 8.16335C1.38542 7.56676 1.7964 7.10109 2.3267 6.76633C2.85701 6.43158 3.48177 6.2642 4.20099 6.2642C4.78101 6.2642 5.29806 6.37192 5.75213 6.58736C6.2062 6.79948 6.57244 7.09777 6.85085 7.48224C7.13258 7.86671 7.29995 8.31581 7.35298 8.82955H5.90625C5.8267 8.47159 5.64441 8.16335 5.35938 7.90483C5.07765 7.64631 4.69981 7.51705 4.22585 7.51705C3.81155 7.51705 3.44863 7.62642 3.13707 7.84517C2.82884 8.06061 2.58854 8.36884 2.41619 8.76989C2.24384 9.16761 2.15767 9.63826 2.15767 10.1818C2.15767 10.7386 2.24219 11.2192 2.41122 11.6236C2.58026 12.0279 2.81889 12.3411 3.12713 12.5632C3.43868 12.7853 3.80492 12.8963 4.22585 12.8963C4.50758 12.8963 4.76278 12.8449 4.99148 12.7422C5.22349 12.6361 5.41738 12.4853 5.57315 12.2898C5.73224 12.0942 5.84328 11.8589 5.90625 11.5838H7.35298C7.29995 12.0777 7.1392 12.5185 6.87074 12.9062C6.60227 13.294 6.24266 13.599 5.7919 13.821C5.34446 14.0431 4.81913 14.1541 4.21591 14.1541ZM16.3528 14V6.36364H17.8393V14H16.3528ZM17.1035 5.18537C16.845 5.18537 16.6229 5.09919 16.4373 4.92685C16.255 4.75118 16.1639 4.54238 16.1639 4.30043C16.1639 4.05516 16.255 3.84635 16.4373 3.67401C16.6229 3.49834 16.845 3.41051 17.1035 3.41051C17.362 3.41051 17.5824 3.49834 17.7647 3.67401C17.9503 3.84635 18.0431 4.05516 18.0431 4.30043C18.0431 4.54238 17.9503 4.75118 17.7647 4.92685C17.5824 5.09919 17.362 5.18537 17.1035 5.18537ZM21.3256 9.46591V14H19.8391V6.36364H21.266V7.60653H21.3604C21.5361 7.20218 21.8112 6.87737 22.1857 6.6321C22.5636 6.38684 23.0392 6.2642 23.6126 6.2642C24.1329 6.2642 24.5887 6.37358 24.9798 6.59233C25.3709 6.80777 25.6741 7.12926 25.8896 7.55682C26.105 7.98437 26.2127 8.51302 26.2127 9.14276V14H24.7262V9.32173C24.7262 8.76823 24.582 8.3357 24.2937 8.02415C24.0053 7.70928 23.6093 7.55185 23.1055 7.55185C22.7608 7.55185 22.4542 7.62642 22.1857 7.77557C21.9206 7.92472 21.7101 8.14347 21.5543 8.43182C21.4019 8.71686 21.3256 9.06155 21.3256 9.46591ZM29.1857 14.0945C28.9139 14.0945 28.6803 13.9983 28.4847 13.8061C28.2892 13.6106 28.1914 13.3752 28.1914 13.1001C28.1914 12.8284 28.2892 12.5964 28.4847 12.4041C28.6803 12.2086 28.9139 12.1108 29.1857 12.1108C29.4575 12.1108 29.6912 12.2086 29.8867 12.4041C30.0823 12.5964 30.18 12.8284 30.18 13.1001C30.18 13.2824 30.1336 13.4498 30.0408 13.6023C29.9513 13.7514 29.832 13.8707 29.6829 13.9602C29.5337 14.0497 29.368 14.0945 29.1857 14.0945ZM33.6577 9.46591V14H32.1712V3.81818H33.6378V7.60653H33.7322C33.9112 7.19555 34.1847 6.86908 34.5526 6.62713C34.9205 6.38518 35.401 6.2642 35.9943 6.2642C36.518 6.2642 36.9754 6.37192 37.3665 6.58736C37.7609 6.80279 38.0658 7.12429 38.2812 7.55185C38.5 7.97609 38.6094 8.50639 38.6094 9.14276V14H37.1229V9.32173C37.1229 8.7616 36.9787 8.32741 36.6903 8.01918C36.402 7.70762 36.0009 7.55185 35.4872 7.55185C35.1359 7.55185 34.821 7.62642 34.5426 7.77557C34.2675 7.92472 34.0504 8.14347 33.8913 8.43182C33.7356 8.71686 33.6577 9.06155 33.6577 9.46591ZM45.4304 10.8331V6.36364H46.9219V14H45.4602V12.6776H45.3807C45.205 13.0852 44.9233 13.425 44.5355 13.6967C44.151 13.9652 43.6721 14.0994 43.0987 14.0994C42.6082 14.0994 42.174 13.9917 41.7962 13.7763C41.4216 13.5575 41.1267 13.2344 40.9112 12.8068C40.6991 12.3793 40.593 11.8506 40.593 11.2209V6.36364H42.0795V11.0419C42.0795 11.5623 42.2237 11.9766 42.5121 12.2848C42.8004 12.593 43.175 12.7472 43.6357 12.7472C43.9141 12.7472 44.1908 12.6776 44.4659 12.5384C44.7443 12.3991 44.9747 12.1887 45.157 11.907C45.3426 11.6252 45.4337 11.2673 45.4304 10.8331ZM49.0385 14V3.81818H50.525V7.60156H50.6145C50.7007 7.44247 50.825 7.25852 50.9874 7.04972C51.1498 6.84091 51.3752 6.65862 51.6635 6.50284C51.9519 6.34375 52.333 6.2642 52.807 6.2642C53.4235 6.2642 53.9737 6.41998 54.4576 6.73153C54.9415 7.04309 55.321 7.49219 55.5961 8.07884C55.8745 8.66548 56.0137 9.37145 56.0137 10.1967C56.0137 11.022 55.8761 11.7296 55.601 12.3196C55.3259 12.9062 54.9481 13.3587 54.4675 13.6768C53.9869 13.9917 53.4384 14.1491 52.8219 14.1491C52.3579 14.1491 51.9784 14.0713 51.6834 13.9155C51.3917 13.7597 51.1631 13.5774 50.9973 13.3686C50.8316 13.1598 50.704 12.9742 50.6145 12.8118H50.4902V14H49.0385ZM50.4952 10.1818C50.4952 10.7187 50.5731 11.1894 50.7289 11.5938C50.8846 11.9981 51.11 12.3146 51.405 12.5433C51.7 12.7687 52.0613 12.8814 52.4888 12.8814C52.9329 12.8814 53.3042 12.7637 53.6025 12.5284C53.9007 12.2898 54.1261 11.9666 54.2786 11.5589C54.4344 11.1513 54.5123 10.6922 54.5123 10.1818C54.5123 9.67803 54.436 9.22562 54.2836 8.82457C54.1344 8.42353 53.909 8.10701 53.6074 7.875C53.3091 7.64299 52.9363 7.52699 52.4888 7.52699C52.0579 7.52699 51.6934 7.63802 51.3951 7.86009C51.1001 8.08215 50.8764 8.39205 50.7239 8.78977C50.5714 9.1875 50.4952 9.65151 50.4952 10.1818Z" fill="white"/>
<path d="M9.13333 8.85714C9.4 7.57143 10.6 6.60714 12 6.60714C13 6.60714 13.8 7.05714 14.3333 7.76429L15.4667 6.47857C14.6667 5.57857 13.4 5 12 5C9.66667 5 7.73333 6.67143 7.4 8.85714H6L8.33333 11.4286L10.6667 8.85714H9.13333ZM15.6667 7.57143L13.3333 10.1429H14.8667C14.5333 11.4286 13.4 12.3929 12 12.3929C11 12.3929 10.2 11.9429 9.66667 11.2357L8.53333 12.4571C9.33333 13.4214 10.6 14 12 14C14.3333 14 16.2667 12.3286 16.6 10.1429H18L15.6667 7.57143Z" fill="#FE9902"/>
</svg>
